<?xml version="1.0" encoding="utf-8"?>
<!-- Generator: Adobe Illustrator 27.3.1, SVG Export Plug-In . SVG Version: 6.00 Build 0)  -->
<svg version="1.1" id="Layer_1" xmlns="http://www.w3.org/2000/svg" xmlns:xlink="http://www.w3.org/1999/xlink" x="0px" y="0px"
	 viewBox="0 0 139 20" style="enable-background:new 0 0 139 20;" xml:space="preserve">
<style type="text/css">
	.st0{fill:#FEFEFE;}
	.st1{fill-rule:evenodd;clip-rule:evenodd;fill:url(#SVGID_1_);}
	
		.st2{opacity:0.5;fill-rule:evenodd;clip-rule:evenodd;fill:url(#SVGID_00000045583594764000757100000011966935748046111400_);enable-background:new    ;}
	
		.st3{opacity:0.15;fill-rule:evenodd;clip-rule:evenodd;fill:url(#SVGID_00000064328847424431510660000013348996116471874986_);enable-background:new    ;}
</style>
<g>
	<path class="st0" d="M37.8,15.8c2.9,0,5.2-1.6,6-4.2h-3.9c-0.4,0.7-1.1,1.1-2.1,1.1c-1.2,0-2.1-0.7-2.3-2h8.4
		c0.1-0.4,0.1-0.7,0.1-1c0-3.3-2.5-5.9-6.2-5.9c-3.6,0-6.2,2.6-6.2,6C31.6,13.3,34.2,15.8,37.8,15.8z M40.1,8.5h-4.6
		c0.3-1.1,1.1-1.7,2.3-1.7C38.9,6.8,39.8,7.4,40.1,8.5L40.1,8.5z M51,15.8c1.3,0,2.5-0.4,3.4-1.2l0.3,0.8h3V4.1h-2.9L54.5,5
		c-0.9-0.8-2.1-1.2-3.5-1.2c-3.5,0-6,2.5-6,6C45.1,13.3,47.6,15.8,51,15.8L51,15.8z M51.6,12.4c-1.5,0-2.5-1.1-2.5-2.6
		c0-1.5,1.1-2.6,2.5-2.6c1.5,0,2.5,1.1,2.5,2.6C54.1,11.3,53,12.4,51.6,12.4z M64.7,15.8c3,0,5-1.6,5-3.9c0-2.9-2.4-3.3-4.2-3.6
		c-1.1-0.2-2-0.3-2-1c0-0.5,0.4-0.8,1-0.8c0.7,0,1.2,0.3,1.2,1.1h3.7c0-2.3-1.9-3.8-4.8-3.8c-2.9,0-4.9,1.5-4.9,3.7
		c0,2.8,2.3,3.3,4.1,3.6c1.1,0.2,2,0.4,2,1c0,0.6-0.5,0.9-1.1,0.9c-0.7,0-1.3-0.4-1.3-1.2h-3.8C59.7,14.2,61.6,15.8,64.7,15.8
		L64.7,15.8z M72.8,19.7c2.9,0,4.3-1.3,5.9-4.7l4.8-10.9h-4.2L77,10.4l-2.4-6.3h-4.3L75,14.5c-0.5,1.4-1,1.8-2.5,1.8h-1.1v3.4H72.8z
		 M91.3,15.8c3.5,0,6-2.5,6-6s-2.5-6-6-6c-1,0-2,0.3-2.8,0.8V0h-3.9v15.5h2.9l0.4-0.8C88.8,15.4,90,15.8,91.3,15.8z M90.8,12.4
		c-1.5,0-2.5-1.1-2.5-2.6c0-1.5,1.1-2.6,2.5-2.6c1.5,0,2.5,1.1,2.5,2.6C93.3,11.3,92.2,12.4,90.8,12.4L90.8,12.4z M104.4,15.8
		c1.3,0,2.5-0.4,3.4-1.2l0.3,0.8h3V4.1h-2.9L107.8,5c-0.9-0.8-2.1-1.2-3.5-1.2c-3.5,0-6,2.5-6,6C98.4,13.3,100.9,15.8,104.4,15.8
		L104.4,15.8z M104.9,12.4c-1.5,0-2.5-1.1-2.5-2.6c0-1.5,1.1-2.6,2.5-2.6c1.5,0,2.5,1.1,2.5,2.6C107.4,11.3,106.4,12.4,104.9,12.4z
		 M117.5,15.5V9.4c0-1.4,0.7-2.3,1.9-2.3c1,0,1.5,0.7,1.5,2v6.4h3.9V8.5c0-2.9-1.7-4.8-4.4-4.8c-1.5,0-2.7,0.6-3.6,1.5l-0.5-1.2
		h-2.7v11.4L117.5,15.5L117.5,15.5z M131.3,15.5v-4.8l2.8,4.8h4.6l-3.9-5.9l3.5-5.4H134l-2.7,4.5V0h-3.9v15.5L131.3,15.5L131.3,15.5
		z"/>
	<g>
		
			<linearGradient id="SVGID_1_" gradientUnits="userSpaceOnUse" x1="-213.6581" y1="410.0096" x2="-214.205" y2="409.0096" gradientTransform="matrix(16.789 0 0 -19.704 3599.8918 8079.2568)">
			<stop  offset="0" style="stop-color:#33D35E"/>
			<stop  offset="1" style="stop-color:#2AB6D9"/>
		</linearGradient>
		<path class="st1" d="M10.8,0L0,19.7h6L16.8,0H10.8z"/>
		
			<linearGradient id="SVGID_00000159448358845759634920000014723207999808880775_" gradientUnits="userSpaceOnUse" x1="-213.6581" y1="410.0096" x2="-214.205" y2="409.0096" gradientTransform="matrix(16.789 0 0 -19.704 3607.26 8079.2568)">
			<stop  offset="0" style="stop-color:#33D35E"/>
			<stop  offset="1" style="stop-color:#2AB6D9"/>
		</linearGradient>
		
			<path style="opacity:0.5;fill-rule:evenodd;clip-rule:evenodd;fill:url(#SVGID_00000159448358845759634920000014723207999808880775_);enable-background:new    ;" d="
			M18.2,0L7.4,19.7h6L24.2,0H18.2z"/>
		
			<linearGradient id="SVGID_00000051368625095271947510000005228082947261266321_" gradientUnits="userSpaceOnUse" x1="-213.6573" y1="410.0096" x2="-214.2042" y2="409.0096" gradientTransform="matrix(16.788 0 0 -19.704 3614.4006 8079.2568)">
			<stop  offset="0" style="stop-color:#33D35E"/>
			<stop  offset="1" style="stop-color:#2AB6D9"/>
		</linearGradient>
		
			<path style="opacity:0.15;fill-rule:evenodd;clip-rule:evenodd;fill:url(#SVGID_00000051368625095271947510000005228082947261266321_);enable-background:new    ;" d="
			M25.5,0L14.7,19.7h6L31.5,0H25.5z"/>
	</g>
</g>
</svg>
